<svg id="Capa_1" xmlns="http://www.w3.org/2000/svg" width="351.2" height="331.7" viewBox="0 0 351.2 331.7"><style>.st0{fill:#288fc9}</style><path class="st0" d="M148 29h15v24.6h-15zM177.5 29h15v24.6h-15zM207 29h15v24.6h-15zM148 69.2h15v24.6h-15zM177.5 69.2h15v24.6h-15zM207 69.2h15v24.6h-15zM26.6 211.3h15v24.6h-15zM56.1 211.3h15v24.6h-15zM85.6 211.3h15v24.6h-15zM26.6 251.6h15v24.6h-15zM56.1 251.6h15v24.6h-15zM85.6 251.6h15v24.6h-15z"/><path class="st0" d="M351.2 182.3h-19.7c.1-2.3.2-4.5.2-6.8 0-56.9-31-109.3-80.9-136.8l-2.1-1.2V0H121.4v29.2c-29.5 10.9-54.8 30.2-73.1 56-18.9 26.5-28.8 57.8-28.8 90.4 0 2.3.1 4.5.2 6.8H0v133.2h106.4c21.6 10.7 44.9 16.1 69.2 16.1 24.2 0 47.3-5.4 68.8-16l-.1-.2h106.8l.1-133.2zM136.4 15h97.2v103.2h-97.2V15zM15 197.3h97.2v103.2H15V197.3zm112.2 110.8V182.3H34.7c-.1-2.3-.2-4.5-.2-6.8 0-57 34.7-108.6 86.9-130.3v87.9h127.2V54.8c42.1 25.5 68 71.2 68 120.7 0 2.3-.1 4.5-.2 6.8H224v125.8c-15.4 5.7-31.7 8.5-48.4 8.5-16.8 0-33-2.9-48.4-8.5zm209-7.6H239V197.3h97.2v103.2z"/><path class="st0" d="M250.6 211.3h15v24.6h-15zM280.1 211.3h15v24.6h-15zM309.6 211.3h15v24.6h-15zM250.6 251.6h15v24.6h-15zM280.1 251.6h15v24.6h-15zM309.6 251.6h15v24.6h-15z"/></svg>