<svg id="Слой_1" xmlns="http://www.w3.org/2000/svg" width="512" height="512" viewBox="0 0 512 512"><style>.st0{fill:#288fc9}</style><g id="Page-1"><path id="Shape_1_" class="st0" d="M213.3 411.6h-2v-17.9c.3-19.7-6.2-39.1-18.3-54.7-7-9.3-16.6-16.2-27.5-20.1h-.1c-18.2-7.7-34.8-18.3-49.4-31.7-12.7-10.5-30.5-11.4-44.2-2.3l-2 1.3L50.4 241c-4-9.3-13.1-15.3-23.2-15.3-8.6 0-16.5 4.3-21.2 11.6-4.6 7.2-5.3 16.2-1.7 24.1L37.8 335c4.4 9.8 10.5 18.6 18.1 26.2l54 54-1.3 1.4c-2.6 2.8-4.1 6.4-4.1 10.2v68.3c0 8.3 6.8 15.1 15.1 15.1h93.9c8.3 0 15.1-6.8 15.1-15.1v-68.3c-.2-8.4-7-15.2-15.3-15.2zM65.1 351.8c-6.5-6.5-11.7-14-15.5-22.3l-33.4-73.6c-1.7-3.8-1.4-8.1.8-11.6 2.3-3.5 6.1-5.6 10.2-5.6 4.9 0 9.2 2.9 11.2 7.4l19.1 44.5c5 11.7 12.1 22.2 21.1 31.2l39 39c1.7 1.7 4.1 2.4 6.4 1.8s4.1-2.4 4.7-4.7c.6-2.3-.1-4.7-1.8-6.4l-39-39c-4-4-7.6-8.4-10.8-13.1l-1-1.6 1.5-1.1c9-6.9 21.4-6.7 30.1.5l.1.1c15.8 14.5 34 26 53.8 34.1 8.5 3.1 15.9 8.6 21.4 15.9 10.2 13.2 15.6 29.7 15.4 46.5v17.8H125l-59.9-59.8zm150.2 145.1h-97.9v-72.3h97.9v72.3z"/><path class="st0" d="M194.3 460.8c0 3.6-2.9 6.5-6.5 6.5h-8.5c-3.6 0-6.5-2.9-6.5-6.5s2.9-6.5 6.5-6.5h8.5c3.5 0 6.5 2.9 6.5 6.5zM508.2 242.1c-2.4-6.3-7.2-11.2-13.3-14-6.2-2.7-13-2.9-19.3-.4-6.3 2.4-11.2 7.2-14 13.3l-19.3 45.1-2-1.3c-13.8-9.1-31.6-8.1-44.3 2.4-14.5 13.4-31.2 24-49.4 31.7l-.1.1c-11 3.9-20.5 10.8-27.5 20.1-12.1 15.6-18.6 35-18.3 54.7v17.9h-2c-8.3 0-15.1 6.8-15.1 15.1v68.3c0 8.3 6.8 15.1 15.1 15.1h93.9c8.3 0 15.1-6.8 15.1-15.1v-68.3c0-3.8-1.5-7.5-4.1-10.2l-1.3-1.4 54-54c7.6-7.6 13.7-16.4 18.1-26.1l33.4-73.6c2.6-6.3 2.8-13.2.4-19.4zM394.5 496.9h-97.9v-72.3h97.9v72.3zm101.3-241l-33.5 73.6c-3.8 8.3-9 15.8-15.5 22.3L387 411.6h-73.4v-17.9c-.3-16.7 5.2-33.2 15.4-46.4 5.4-7.3 12.8-12.8 21.4-15.9 19.8-8.1 38-19.5 53.8-34.1l.1-.1c8.8-7.2 21.1-7.4 30.1-.5l1.5 1.1-1 1.6c-3.1 4.7-6.8 9.1-10.8 13.1l-39 39c-2.4 2.5-2.4 6.6.1 9.1s6.6 2.5 9.2.1l39-39c9-9 16.1-19.5 21.1-31.2l19.1-44.5c1.9-4.5 6.3-7.4 11.1-7.4 4.1 0 8 2.1 10.2 5.6 2.3 3.6 2.6 7.9.9 11.7z"/><path class="st0" d="M339.3 460.8c0 3.6-2.9 6.5-6.5 6.5h-8.5c-3.6 0-6.5-2.9-6.5-6.5s2.9-6.5 6.5-6.5h8.5c3.6 0 6.5 2.9 6.5 6.5zM418.1 87.3h-29.7l-28.2-70.5C356.7 7.8 348.1 2 338.4 2H190.7c-9.7 0-18.3 5.8-21.8 14.8l-28.2 70.5H93.9c-17.7 0-32.1 14.4-32.1 32.1v42.7c0 13 10.6 23.6 23.6 23.6h19.5l.3 1.7c4 23.8 24.4 41 48.5 41s44.5-17.2 48.5-41l.3-1.7h98.8l.3 1.7c4 23.8 24.4 41 48.5 41s44.5-17.2 48.5-41l.3-1.7H427c13 0 23.6-10.6 23.6-23.6v-42.7c-.3-17.7-14.8-32.1-32.5-32.1zM262.5 15.1h75.8c4.3 0 8.2 2.6 9.7 6.6l26.3 65.6H262.5V15.1zM181 21.7c1.6-4 5.4-6.7 9.8-6.6h58.7v72.3h-94.8L181 21.7zM74.8 119.5c0-10.5 8.5-19.1 19.1-19.1h2v10.5c0 5.8-4.7 10.5-10.5 10.5H74.8v-1.9zm78.8 95.8c-19.9 0-36.1-16.2-36.1-36.1s16.2-36.1 36.1-36.1 36.1 16.2 36.1 36.1c0 19.9-16.2 36.1-36.1 36.1zm196.3 0c-19.9 0-36.1-16.2-36.1-36.1s16.2-36.1 36.1-36.1 36.1 16.2 36.1 36.1-16.2 36.1-36.1 36.1zm87.3-53.2c0 5.8-4.7 10.5-10.5 10.5h-28.1l-.3-1.7c-4-23.8-24.4-41-48.5-41s-44.5 17.2-48.5 41l-.3 1.7h-38.6V128c0-3.6-2.9-6.5-6.5-6.5s-6.5 2.9-6.5 6.5v44.7h-47.1l-.3-1.7c-4-23.8-24.4-41-48.5-41S109 147.2 105 171l-.3 1.7H85.3c-5.8 0-10.5-4.7-10.5-10.5v-27.6h10.5c13 0 23.6-10.6 23.6-23.6v-10.5H403V111c0 13 10.6 23.6 23.6 23.6h10.5v27.5h.1zm0-40.6h-10.5c-5.8 0-10.5-4.7-10.5-10.5v-10.5h2c10.5 0 19.1 8.6 19.1 19.1v1.9h-.1z"/><path class="st0" d="M160.1 179.2c0 3.6-2.9 6.5-6.5 6.5s-6.5-2.9-6.5-6.5 2.9-6.5 6.5-6.5 6.5 2.9 6.5 6.5zM356.4 179.2c0 3.6-2.9 6.5-6.5 6.5s-6.5-2.9-6.5-6.5 2.9-6.5 6.5-6.5 6.5 2.9 6.5 6.5z"/></g></svg>