<svg id="Слой_1" xmlns="http://www.w3.org/2000/svg" width="508.1" height="431" viewBox="0 0 508.1 431"><style>.st0{fill:#288fc9}</style><path class="st0" d="M484.9 151.6c-1.8 3-5.7 4-8.6 2.2L240.7 13.6 9.6 151.7c-1.4.9-3.1 1.1-4.8.7-1.6-.4-3-1.4-3.9-2.9-1.8-3-.8-6.8 2.2-8.6L237.4.9c2-1.2 4.5-1.2 6.5 0L482.7 143c1.4.9 2.5 2.2 2.9 3.9.4 1.6.2 3.3-.7 4.7zM347.4 204.8h-76.7c-3.5 0-6.3 2.8-6.3 6.3v70.5c0 3.5 2.8 6.3 6.3 6.3h76.7c3.5 0 6.3-2.8 6.3-6.3v-70.5c-.1-3.4-2.9-6.3-6.3-6.3zm-6.3 70.5H277v-57.9h64.1v57.9z"/><path class="st0" d="M501.7 387.3h-13.3V282.2c0-2.4-1.3-4.6-3.4-5.6L390 229v-59.4l53.4.2c2.8 0 5.3-1.9 6.1-4.6.8-2.7-.4-5.6-2.8-7.1L243.9 37.2c-2-1.2-4.5-1.2-6.4 0L36.9 156c-2.4 1.4-3.6 4.3-2.9 7.1.8 2.7 3.4 4.6 6.2 4.6l47.9.3v219.3H38.8c-3.2 0-6.7 2.2-6.7 5.9v31.1c.1 3.6 3.1 6.6 6.8 6.7h462.8c3.5-.1 6.4-3.1 6.4-6.7v-31.1c0-3.4-2.7-5.9-6.4-5.9zM475.8 286v101.2h-85.9V243l85.9 43zM62.9 155.3L240.7 49.9l179.7 107.2-357.5-1.8zm159 49.5h-85.4c-1.6-.1-3.2.5-4.3 1.6s-1.7 2.6-1.7 4.2v176.6h-29.9V168l276.6 1.4v217.8h-149V210.7c0-3.3-2.7-5.9-6.3-5.9zm-30.8 104.9h18.4c1.1 0 2.2-.3 3.1-.9l3.1-2v80.6h-72.4v-170h72.4v82.1l-3-1.7c-.9-.5-2-.8-3.1-.8h-18.5c-3.5 0-6.3 2.8-6.3 6.3 0 3.6 2.8 6.4 6.3 6.4zm304.4 108.7H44.7v-18.5h450.8v18.5z"/></svg>