<svg xmlns="http://www.w3.org/2000/svg" width="512" height="512" viewBox="0 0 512 512"><path d="M396.8 275.1h-.9l-.6-.7-56.5-71.9 1.2-1.3c19.3-19.8 31-45.9 32.9-73.5l.1-1.9h89.6v13l-1.6.3c-18.8 3.9-32.5 20.6-32.5 39.8 0 22.4 18.2 40.6 40.6 40.6 10.9 0 21.1-4.2 28.7-11.9 7.7-7.7 11.9-17.9 11.9-28.7 0-19.2-13.7-36-32.5-39.8l-1.6-.3v-19.5c0-3.6-2.9-6.5-6.5-6.5H373V111c-1.6-23.3-10.1-45.4-24.6-63.8l-1.1-1.4L361 32.1h102.6l.5 1.3c2.1 5.9 6.4 10.7 12.1 13.4 5.7 2.7 12.1 3 18 .9 6-2.1 10.7-6.4 13.4-12.1 2.7-5.7 3-12.1 1-18C504.3 5.5 490.8-1 478.5 3.4c-6.8 2.4-12 7.6-14.4 14.4l-.5 1.3H358.3c-1.7 0-3.4.7-4.6 1.9l-15.2 15.2-1.4-1.4C290.6-10 216.3-8.6 171.5 37.9c-19 19.8-30.6 45.8-32.5 73.1l-.1 1.9H64.1L34.9 47.3l1.6-.9c11.5-6 15.9-20.3 9.9-31.8C43.5 9.1 38.6 5 32.6 3.2c-6-1.9-12.4-1.3-17.9 1.7-11.5 6-15.9 20.3-9.9 31.7 3.2 6 8.8 10.4 15.5 12l1 .2 32.6 73.4c1 2.4 3.4 3.9 6 3.9H139l.1 1.9c1.9 27.3 13.4 53.1 32.3 72.8l1.4 1.4-74.1 74.1-1-.1c-45.4-6.8-87.9 24.6-94.7 70s24.6 87.9 70 94.7c1.4.2 2.8.4 4.1.5l1.8.2v44.9c0 3.6 2.9 6.5 6.5 6.5h79.8l.5 1.3c2.1 5.9 6.4 10.7 12.1 13.4 5.7 2.7 12.1 3.1 18 1 12.3-4.3 18.7-17.8 14.4-30.1-2.1-5.9-6.4-10.7-12.1-13.4-5.7-2.7-12.1-3-18-.9-6.8 2.4-12 7.6-14.4 14.4l-.5 1.3H91.9v-38.4l1.8-.2c45.7-4.6 79.1-45.4 74.6-91.1-3.1-31.1-23-57.6-52.1-69.1l-2.8-1.1 69.1-69.1 1.4 1.1c42.1 32.9 101.1 33.1 143.5.3l1.6-1.2 50.7 64.5-3.4.5c-31.1 4.3-58.6 20.5-77.5 45.5s-26.9 55.9-22.6 87c8.2 58.7 58.6 101.2 116.3 101.2 5.4 0 10.8-.4 16.3-1.1 64.1-8.9 109-68.4 100.1-132.6-8-56.4-55.1-99-112.1-101.1zm100-96c0 15.2-12.4 27.6-27.6 27.6s-27.6-12.4-27.6-27.6c0-15.2 12.4-27.6 27.6-27.6s27.6 12.4 27.6 27.6zm-10.5-164c5.8 0 10.5 4.7 10.5 10.5s-4.7 10.5-10.5 10.5-10.5-4.7-10.5-10.5 4.7-10.5 10.5-10.5zm-460.6 21c-5.8 0-10.5-4.7-10.5-10.5s4.7-10.5 10.5-10.5 10.5 4.7 10.5 10.5-4.7 10.5-10.5 10.5zm162.1 439.6c5.8 0 10.5 4.7 10.5 10.5s-4.7 10.5-10.5 10.5-10.5-4.7-10.5-10.5c-.1-5.8 4.6-10.5 10.5-10.5zm-66.3-57.3l-1 .6c-10.8 6.3-23 9.5-35.1 9.5-12.2 0-24.3-3.2-35.1-9.5l-1-.6v-17.5c0-19.9 16.2-36.1 36.1-36.1s36.1 16.2 36.1 36.1v17.5zm-55.2-85.7c0-10.5 8.5-19.1 19.1-19.1 10.5 0 19 8.5 19 19.1s-8.5 19.1-19 19.1c-10.5-.1-19.1-8.6-19.1-19.1zm71.8-21.1c11.4 12.9 17.6 29.4 17.6 46.6 0 17.1-6.2 33.5-17.6 46.3l-3.5 4v-7.6c0-17.9-9.8-34.4-25.5-43l-2.3-1.3 1.8-1.9c12.2-12.8 11.8-33.2-1-45.4-12.8-12.2-33.2-11.8-45.4 1-11.9 12.4-11.9 31.9 0 44.4l1.8 1.9-2.3 1.3c-15.7 8.6-25.5 25.1-25.5 43v7.6l-3.5-4c-25.6-29-22.8-73.5 6.2-99.1 29.1-25.6 73.6-22.8 99.2 6.2zm179.6-108.2l-.8.6c-18.2 13.2-39.5 19.8-60.9 19.8-21.3 0-42.7-6.6-60.9-19.8l-.8-.6v-21.7c0-16.6 13.5-30.1 30.1-30.1h21.9l-13.5 33.7c-1 2.4-.4 5.2 1.4 7l17.1 17.1c2.6 2.5 6.7 2.5 9.2 0l17.1-17.1c1.8-1.8 2.4-4.6 1.4-7l-13.5-33.7h21.9c16.6 0 30.1 13.5 30.1 30.1v21.7h.2zM214.4 99.9c14.3-1.2 40-5.5 51.8-21l1.1-1.4 33.2 19.9-.2 1.3c-3.5 21.5-29.7 39.7-44.2 39.7h-.3c-19.7-3.4-36.2-17.1-43-35.9l-.9-2.5 2.5-.1zM211.6 87l.2-2.4c2.4-29.6 16.8-44 44.2-44 25.2 0 39.3 12.1 43.3 37l.7 4.2-32.1-19.3c-3.1-1.9-7.1-.8-9 2.2-.2.4-.4.8-.6 1.3-5.1 15.3-32.7 19.5-44.3 20.6l-2.4.4zm53.8 99.1l-9.4 9.4-9.4-9.4 9.4-23.5 9.4 23.5zm65.4 6.1v-10.5c0-21.8-16.2-40.2-37.8-42.8l-4.8-.6 3.8-3c12.8-10.1 20.8-25.2 21.7-41.5 0-54.7-31.4-66.2-57.7-66.2s-57.7 11.5-57.7 66.2c1 16.3 8.9 31.5 21.7 41.6l3.8 3-4.8.6c-21.6 2.7-37.8 21.1-37.8 42.8v10.5l-3.5-4c-18.4-20.9-27.6-47.7-25.9-75.6 1.7-27.8 14.2-53.3 35.1-71.7 43.2-38.2 109.3-34 147.4 9.1 34.7 39.4 34.7 98.7 0 138.1l-3.5 4zm123.4 284.1l-.8.6c-18.2 13.2-39.5 19.8-60.9 19.8-21.3 0-42.7-6.6-60.9-19.8l-.8-.6v-21.7c0-16.6 13.5-30.2 30.2-30.2h21.9l-13.5 33.7c-1 2.4-.4 5.2 1.5 7l17.1 17.1c2.5 2.5 6.7 2.5 9.2 0l17.1-17.1c1.8-1.8 2.4-4.6 1.5-7l-13.5-33.7H424c16.6 0 30.1 13.5 30.1 30.2v21.7h.1zM350.8 372.9c14.1-1.2 39.4-5.4 51.4-20.5v-2.8l34.7 20.8-.2 1.3c-3.5 21.5-29.7 39.7-44.2 39.7h-.3c-19.7-3.3-36.2-17.1-43-35.8l-.9-2.5 2.5-.2zm-2.7-12.9l.2-2.4c2.4-29.6 16.8-44 44.2-44 25.2 0 39.3 12.1 43.3 37l.7 4.2-32.1-19.3c-1.5-.9-3.3-1.1-4.9-.7s-3.1 1.5-4 3c-.3.4-.5.8-.6 1.3-5.1 15.3-32.7 19.5-44.3 20.6l-2.5.3zm53.7 99l-9.4 9.4-9.4-9.4 9.4-23.5 9.4 23.5zm68.9 2.2l-3.5 4v-10.5c0-21.8-16.2-40.2-37.8-42.8l-4.8-.6 3.8-3c12.8-10.1 20.8-25.2 21.7-41.5 0-54.7-31.4-66.2-57.7-66.2s-57.7 11.5-57.7 66.2c1 16.3 8.9 31.5 21.7 41.6l3.8 3-4.8.6c-21.6 2.7-37.8 21.1-37.8 42.8v10.5l-3.5-4c-18.4-20.9-27.5-47.8-25.8-75.6 1.8-27.8 14.3-53.2 35.2-71.6 20.9-18.4 47.8-27.5 75.6-25.8 27.8 1.8 53.3 14.3 71.6 35.2 16.8 19.1 26 43.6 26 69 .1 25.2-9.2 49.7-26 68.7z" fill="#288fc9"/></svg>