<svg id="Слой_1" xmlns="http://www.w3.org/2000/svg" width="512" height="512" viewBox="0 0 512 512"><style>.st0{fill:#288fc9}</style><path class="st0" d="M1.6 47l34.1 59.8c1.2 2 3.1 3.5 5.3 4l31.9 8L182.2 228l12.1-12.1-111-111c-1.1-1.1-2.5-1.9-4-2.2L48.7 95l-29-50.9 24.9-24.9 50.9 29.1 7.7 30.6c.4 1.5 1.2 2.9 2.2 4l111 111 12.1-12.1L119.2 72.5l-8-31.8c-.6-2.3-2-4.2-4-5.3L47.5 1.2C44.2-.7 40-.1 37.3 2.6L3.1 36.7C.3 39.4-.3 43.6 1.6 47zM356.5 168.2L168.7 356l-12.1-12 187.8-187.8 12.1 12zM135.9 362.7c-1.5-2.6-4.3-4.1-7.3-4.1H77.3c-3 0-5.8 1.6-7.3 4.1l-25.6 42.7c-1.6 2.7-1.6 6.1 0 8.8L70 456.8c1.5 2.6 4.3 4.1 7.3 4.1h51.2c3 0 5.8-1.6 7.3-4.1l25.6-42.7c1.6-2.7 1.6-6.1 0-8.8l-25.5-42.6zm-12.2 81.2H82.2l-20.5-34.1 20.5-34.1h41.6l20.5 34.1-20.6 34.1z"/><path class="st0" d="M410.2 204.9c56.4.2 102.2-45.4 102.4-101.7 0-8.6-1-17.1-3.1-25.4-1.1-4.6-5.8-7.4-10.3-6.2-1.5.4-2.9 1.2-4 2.2l-53.1 53.1-42.2-14-14.1-42.1L439 17.5c3.3-3.3 3.3-8.7 0-12.1-1.1-1.1-2.5-1.9-4-2.3C380.3-10.7 324.8 22.4 310.9 77c-2.1 8.3-3.2 16.8-3.1 25.4 0 6.7.7 13.4 2.1 20l-187 187c-6.6-1.4-13.3-2.1-20-2.1C46.3 307.3.5 353.2.5 409.7c0 56.6 45.9 102.4 102.4 102.4 56.6 0 102.4-45.9 102.4-102.4 0-6.7-.7-13.4-2.1-20L248 345l19.6 19.6c3.3 3.3 8.7 3.3 12.1 0l4.3-4.3c3.7-3.7 9.8-3.7 13.5 0 3.7 3.7 3.7 9.8 0 13.5l-4.3 4.3c-3.3 3.3-3.3 8.7 0 12.1L395.1 492c26.8 27 70.4 27.2 97.4.4s27.2-70.4.4-97.4l-.4-.4-101.8-101.9c-3.3-3.3-8.7-3.3-12.1 0l-4.3 4.3c-3.7 3.7-9.8 3.7-13.5 0-3.7-3.7-3.7-9.8 0-13.5l4.3-4.3c3.3-3.3 3.3-8.7 0-12.1l-19.6-19.6 44.8-44.8c6.5 1.5 13.2 2.2 19.9 2.2zm33.6 290.2c-6.2 0-12.4-1.1-18.2-3.3l66.7-66.7c10.1 26.8-3.5 56.6-30.2 66.7-5.9 2.2-12.1 3.3-18.3 3.3zm-96.7-221.8c-9.5 11.3-8 28.1 3.3 37.5 9.9 8.3 24.4 8.3 34.3 0l95.8 95.9c1 1 2 2.1 3 3.3l-73 73c-1.1-.9-2.2-1.9-3.3-3l-95.9-95.9c9.5-11.3 8-28.1-3.3-37.5-9.9-8.3-24.4-8.3-34.3 0L260 332.9l73.4-73.3 13.7 13.7zm34.4-85.9L187.9 381c-2.1 2.1-3 5.2-2.3 8.1 11.7 46-16.1 92.8-62.1 104.5-46 11.7-92.8-16.1-104.5-62.1-11.7-46 16.1-92.8 62.1-104.5 13.9-3.5 28.5-3.5 42.4 0 2.9.7 6-.1 8.1-2.3l193.6-193.6c2.1-2.1 3-5.2 2.2-8.1-11.6-45.5 15.8-91.7 61.2-103.4 8.6-2.2 17.5-3 26.3-2.5l-45 45c-2.3 2.3-3.1 5.7-2.1 8.7l17.1 51.2c.9 2.5 2.9 4.5 5.4 5.4l51.2 17.1c3.1 1 6.4.2 8.7-2.1l45-45c.1 1.6.2 3.2.2 4.8.2 46.9-37.6 85.1-84.5 85.4-7.3 0-14.5-.9-21.5-2.7-2.7-.5-5.8.4-7.9 2.5z"/><path class="st0" d="M441.9 429.3l-12.1 12.1-85.4-85.4 12.1-12.1 85.4 85.4z"/></svg>