<svg xmlns="http://www.w3.org/2000/svg" width="367.1" height="405.6" viewBox="0 0 367.1 405.6"><path d="M343 142.8c.3-.1.5-.2.7-.3.5-.2 1.1-.4 1.7-.6 12.6-4 20.7-14 21.7-26.8.9-12-5.9-23.4-17.3-29.1-10.6-5.2-23.4-3.1-32.7 5.2-2.5 2.2-4.6 2.5-7.5.8-29.9-17.5-61-35.7-92.5-54-3.3-1.9-3.7-4.5-3.6-6.9.3-7.4-2-14.2-6.8-20.2-4.3-5.4-10.3-8.8-19.4-11.1h-7.5c-.1 0-.3.1-.4.1-.6.2-1.1.4-1.8.5-14.6 3.1-24.5 15.5-24 30.2.1 3.7-1.1 5.8-4.3 7.7C118.7 56.1 88 73.9 58.2 91.5c-3.4 2-5.9 1.8-8.8-.9-11.2-10.2-28-10-39.9.5-10.8 9.5-12.7 26.4-4.5 38.5 4.4 6.5 10.5 10.7 18.8 12.9l1.5.4v119.3l-1.3.5-.9.3c-.6.2-1.1.4-1.7.6C9.2 267.3 1 277.5 0 290.2c-1 12 5.8 23.4 17.3 29.1 10.5 5.2 23.6 3.1 32.7-5.1 1.4-1.3 2.7-1.9 4.1-1.9 1.1 0 2.3.4 3.7 1.2C90 332.4 120 349.9 149.6 367c3 1.8 4.2 3.8 4.1 7.4-.2 8.1 2.8 15.9 8.5 21.8s13.3 9.1 21.4 9.1c8.1 0 15.7-3.2 21.4-9.1 5.7-5.9 8.7-13.6 8.5-21.8-.1-4.1 1.7-6 4.4-7.6 34-19.7 63.7-37.1 91.1-53.2 3.9-2.3 6.3-1.2 8.8 1 11.1 10.1 27.7 9.9 39.6-.4 10.7-9.2 12.9-26.5 4.9-38.5-4.4-6.6-10.6-10.9-19-13.1l-1.5-.4V143.3l1.2-.5zm-30.7-10l20.3 11.7v117.9l-6.6 2.2-61-104.2 47.3-27.6zM210.5 44.4l97.4 56.9v23.8l-47.4 27.7-58-99 8-9.4zM162.4 203c-.1-11.3 9.4-21.1 20.8-21.4 5.4-.1 10.9 2.1 15 6.1 4.1 4.1 6.5 9.6 6.5 15.1 0 11.4-9.7 21.1-21.1 21.1h-.1c-11.3.1-21-9.5-21.1-20.9zm-.4-21.1c-.8.5-1.8.8-2.8.8-.7 0-1.4-.1-1.9-.5-11.4-6.6-22.6-13.1-34.4-20l-8.6-5 58-99.2 6.8 1.9V171l-5.2 3.3c-4.2 2.7-8 5.2-11.9 7.6zm26.3 52.1l20.2-11.6 100.7 58.8-1.9 6.7h-119V234zm-.2-62.5V60.1l6.7-2.3 58.2 99.4-44.5 25.9-20.4-11.6zM183.3 8.8c5.7-.1 11 2.1 15 6 4.1 4 6.4 9.4 6.5 15.1v.1c0 5.4-2.2 10.7-6.2 14.7s-9.3 6.3-14.9 6.3h-.1c-5.5 0-10.9-2.3-14.9-6.2-4-4-6.3-9.3-6.3-14.8 0-11.4 9.4-21 20.9-21.2zM59.2 101.3l97.3-56.9 8 9.3-58 99.1-47.3-27.6v-23.9zm-4.3 31.5l47.3 27.6-60.9 104-6.8-1.9v-118l20.4-11.7zm-39.8-4.6c-4-4-6.3-9.5-6.3-15.1 0-11.4 9.3-20.9 20.7-21.1 5.7-.1 11.1 2.1 15.2 6.1 4.1 4 6.4 9.3 6.4 14.9 0 5.5-2.1 10.8-6.1 14.9-4.1 4.1-9.5 6.4-15.2 6.4h-.1c-5.4.1-10.6-2.1-14.6-6.1zm29.9 179c-4.1 4.1-9.5 6.4-15.2 6.4-11.2 0-20.8-9.6-20.9-20.8-.1-5.5 2.1-11 6-15 4-4.1 9.2-6.4 14.7-6.4h.3c5.6 0 10.8 2.2 14.9 6.1 4.1 4 6.4 9.3 6.4 14.9 0 5.4-2.2 10.7-6.2 14.8zm8.8-34.9c-.6 0-1.2-.1-1.7-.4-1.3-.6-2-1.5-2.3-2.6-.4-1.7.5-3.1 1.2-4.2.1-.2.3-.4.4-.6 16-27.5 32.1-55 48.2-82.4l2.6-4.5c1.4-2.4 2.8-4.8 4.3-7.3l3.2-5.4 3.9 2.3c1.5.9 3 1.7 4.4 2.6 3 1.7 5.9 3.5 8.9 5.2 8 4.7 16.4 9.6 24.6 14.3 2.9 1.7 3.3 3.7 3.1 6.6-.4 3.8-.3 7.8-.2 12 0 1.8.1 3.7.1 5.7v1.1l-2 1.2c-.9.5-2 1.2-3.2 1.8l-11.3 6.6c-26.3 15.3-53.4 31.2-80.1 46.7-.7.3-2.4 1.3-4.1 1.3zm104.9-49.9l20.3 11.7v53.6H59.9l-2.1-6.4 100.9-58.9zm-.6 137.5l-1 1.6-99-57.8 1.7-6.7H179v48.8l-1.5.4c-8.4 2.1-14.7 6.6-19.4 13.7zm25.5 36.9c-5.6 0-11.1-2.3-15.1-6.4-4-4.1-6.2-9.5-6.1-15.1.2-11.5 9.7-20.9 21.2-20.9h.2c11.4.1 21 9.8 21 21.3-.1 11.6-9.6 21.1-21.2 21.1zm26.7-35.5l-1.1-1.5c-5.2-7.3-11.7-11.8-19.6-13.6l-1.5-.4V297h119.1l2 6.5-98.9 57.8zm104-88.8c-.4.1-.7.2-1 .2-1.3 0-2.4-.7-3.4-1.2l-.3-.2-54.3-31.8-42.4-24.8v-23.9l44.3-25.9 1 1.6.6.9c.5.6.9 1.2 1.2 1.9l.9 1.5c18 30.7 36.6 62.4 54.8 93.7.6 1 1.9 3.6 1 5.6-.6 1.3-1.4 2.1-2.4 2.4zm44 19.8c0 5.5-2.2 11-6.2 15s-9.2 6.3-14.7 6.3h-.1c-11.6 0-21.1-9.3-21.3-20.8-.1-5.6 2.1-11 6.1-15.1 4.1-4.1 9.7-6.5 15.4-6.5h.1c11.1.1 20.6 9.7 20.7 21.1zm-20.9-157.9h-.1c-11.6-.1-21.1-9.4-21.3-20.9-.1-5.6 2.1-10.8 6-14.9 4-4.2 9.4-6.5 15.2-6.5h.2c5.3 0 10.5 2.2 14.5 6.1 4.1 4 6.4 9.5 6.4 15s-2.3 11-6.3 15-9.2 6.2-14.6 6.2z" fill="#288fc9"/></svg>