<svg id="Capa_1" xmlns="http://www.w3.org/2000/svg" width="464.9" height="464.9" viewBox="0 0 464.9 464.9"><style>.st0{fill:#288fc9}</style><path class="st0" d="M283.1 279.1c41.6-16.9 68-56.8 67.3-101.6 0-61.2-52.9-111-118-111s-118 49.8-118 111c-.7 44.9 25.8 84.8 67.3 101.6l.2.1 1.4.8 7.7 12.6-1.8 1c-10.4 6-13.9 19.3-7.9 29.7.8 1.4 1.7 2.7 2.8 3.8l1.2 1.4-1.2 1.3c-8.1 8.9-7.5 22.8 1.4 30.9 4 3.7 9.3 5.7 14.8 5.7h64.2c12 0 21.8-9.8 21.9-21.8 0-5.5-2-10.8-5.7-14.9l-1.2-1.3 1.2-1.4c3.9-4.3 6-9.8 5.7-15.6-.3-5.8-2.7-11.2-7-15.1-1.2-1.1-2.4-2-3.8-2.8l-1.8-1 7.7-12.6 1.6-.8zm-18.7 75.3h-64c-5.5 0-10-4.5-10-10s4.5-10 10-10h64c5.5 0 10 4.5 10 10s-4.5 10-10 10zm10-42c0 5.5-4.5 10-10 10h-64c-5.5 0-10-4.5-10-10s4.5-10 10-10h64c5.5 0 10 4.5 10 10zm3.1-44l-3.2 1.7c-.9.5-1.7 1.3-2.3 2.2l-11 18.1h-6.6v-63.5l36.8-36.8-8.5-8.5-38.6 38.6c-1.1 1.1-1.8 2.6-1.8 4.2v66h-20v-66c0-1.6-.6-3.1-1.8-4.2l-38.6-38.6-8.5 8.5 36.8 36.8v63.5h-6.6l-11-18.1c-.5-.9-1.3-1.7-2.3-2.2l-3.2-1.7-.6-.3c-18.1-7.3-33.4-19.7-44.2-36-10.8-16.3-16.4-35.2-16.1-54.7 0-54.6 47.5-99 106-99s106 44.4 106 99c.3 19.5-5.3 38.4-16.1 54.7-10.8 16.3-26.1 28.7-44.2 36 0 .1-.2.2-.4.3z"/><path transform="rotate(-63.417 88.4209 84.4462)" class="st0" d="M82.4 59.6h12v49.7h-12z"/><path class="st0" d="M400.4 82.3L353.3 98l-3.8-11.4 47.1-15.7zM34.4 170.4h44v12h-44zM386.4 170.4h44v12h-44z"/><path transform="rotate(-26.565 88.4315 284.389)" class="st0" d="M63.6 278.4h49.7v12H63.6z"/><path class="st0" d="M401.3 290.2l-5.4 10.7-44.4-22.2 5.4-10.7zM226.4 10.4h12v36h-12zM262.5 440.4l-.1 2.1h200v12H2.4v-12h200l-.1-2.1c-1-27.8-81.4-57.6-200-57.9v-12c53 .2 105.5 6.8 144.3 18.4 30.7 9.1 67.3 25.5 67.7 51.6v2h36v-2c.4-26.2 37-42.5 67.7-51.6 38.8-11.5 91.3-18.2 144.3-18.4v12c-118.4.3-198.9 30-199.8 57.9z"/><path class="st0" d="M150.8 418.4l-.7 11.9-148-7.8.6-11.9zM462.8 422.5l-148.1 7.8-.6-11.9 148-7.9z"/></svg>