<svg id="Слой_1" xmlns="http://www.w3.org/2000/svg" width="429" height="505.1" viewBox="0 0 429 505.1"><style>.st0{fill:#288fc9}</style><g id="surface1"><path class="st0" d="M428.5 135.6v-.4c-.2-4.8-.4-10.1-.5-16-.4-26.4-21.4-48.3-47.8-49.7-59.8-3.3-106-22.8-145.6-61.4l-.3-.3C228.7 2.6 221.6 0 214.5 0s-14.2 2.6-19.9 7.8l-.3.3c-39.5 38.5-85.8 58-145.5 61.4C22.4 71 1.4 92.8 1 119.2c-.1 5.7-.2 11-.5 16v.9c-1.1 59.7-2.5 134 22.2 201.2 13.6 36.8 34.1 68.8 61 95.1 30.7 30 71 53.8 119.8 70.8 1.5.5 3 .9 4.5 1.2 4.3.9 8.7.9 13 0 1.5-.3 3.1-.7 4.5-1.2 48.7-17 88.9-40.9 119.6-70.8 26.9-26.3 47.5-58.3 61-95.1 24.9-67.4 23.5-141.8 22.4-201.7zm-43.9 193.7c-26.8 72.5-81.3 122.3-166.6 152.1-.5.2-1 .3-1.4.4-.7.1-1.3.2-2 .2s-1.3-.1-2-.2c-.5-.1-1-.2-1.4-.4-85.5-29.8-140-79.5-166.8-152.1-23.3-63.1-22-132-20.8-192.9v-.4c.2-5.3.4-10.7.5-16.6.2-14.4 11.7-26.3 26-27 32.9-1.8 61.8-8.2 88.3-19.4s50-27 71.8-48.3l.2-.2c2.4-2.1 5.8-2 8.2 0l.2.2C240.7 46 264.2 61.8 290.6 73c26.5 11.2 55.4 17.6 88.3 19.4 14.4.8 25.8 12.7 26 27 .1 6 .3 11.4.5 16.5 1.2 61.2 2.5 130.1-20.8 193.4z"/><path class="st0" d="M214.5 128.5c-68.4 0-124.1 55.7-124.1 124.1s55.7 124.1 124.1 124.1S338.6 321 338.6 252.6s-55.7-124.1-124.1-124.1zm0 225.2c-55.7 0-101.1-45.3-101.1-101.1 0-55.7 45.3-101 101.1-101 55.7 0 101 45.3 101 101s-45.3 101.1-101 101.1z"/><path class="st0" d="M269.9 231.8L200 301.7c-2.2 2.2-5.1 3.4-8.1 3.4-3.1 0-6-1.2-8.1-3.4L157.1 275c-4.5-4.5-4.5-11.8 0-16.3 2.2-2.2 5.2-3.4 8.1-3.4s5.9 1.1 8.2 3.4l18.6 18.6 61.7-61.7c2.2-2.2 5.1-3.4 8.1-3.4 3.1 0 6 1.2 8.2 3.4 4.4 4.4 4.4 11.7-.1 16.2z"/></g></svg>