<svg id="Слой_1" xmlns="http://www.w3.org/2000/svg" width="476" height="476" viewBox="0 0 476 476"><style>.st0{fill:#288fc9}</style><g id="Outline"><path class="st0" d="M335 240l-48-16h-73c-16.5 0-30 13.5-30 30v2h-47.5l-31.6-31.6c-11.2-11.2-29.3-11.2-40.5 0s-11.2 29.3 0 40.5l51.1 51.1H420v-76h-85zm73 64H120.5l-47.6-47.6c-6.5-6.5-6.5-17 0-23.5 3.1-3.1 7.3-4.9 11.8-4.9 4.4 0 8.6 1.7 11.8 4.9l35.1 35.1h55.9l.6 1c5.3 9.3 15.3 15 26 15h70v-12h-70c-9.9 0-18-8.1-18-18s8.1-18 18-18h71l48 16h75v52h-.1zM238 56c-25.4 0-46 20.6-46 46 0 25.3 20.7 46 46 46 25.4 0 46-20.6 46-46s-20.6-46-46-46zm-22.3 20.5c12.7-11.4 31.9-11.4 44.6 0l3.9 3.5h-52.4l3.9-3.5zM238 136c-18.8 0-34-15.3-34-34 0-2.9.4-5.8 1.2-8.5l.4-1.5h64.8l.4 1.5c.8 2.8 1.2 5.6 1.2 8.5 0 18.8-15.2 34-34 34z"/><path class="st0" d="M476 396V80H312.8l-.4-1.4c-1.4-4.3-3.1-8.6-5.3-12.6l-.7-1.3 19.3-19.2-31.1-31.1-19.2 19.3-1.3-.7c-4-2.1-8.3-3.9-12.6-5.2l-1.4-.4V0h-44v27.2l-1.4.4c-4.3 1.4-8.6 3.1-12.6 5.2l-1.3.7-19.2-19.3-31.1 31.1 19.3 19.2-.7 1.3c-2.1 4-3.9 8.3-5.2 12.6l-.4 1.4H0v316h192v32.8L173.1 476h129.7L284 428.8V396h192zM148 92h24.6l1.1-4.7c1.7-7.3 4.5-14.1 8.5-20.4l2.6-4.1-17.4-17.4 14.1-14.1 17.4 17.4 4-2.5c6.3-4 13.2-6.8 20.4-8.5l4.7-1.1V12h20v24.6l4.7 1.1c7.3 1.6 14.1 4.5 20.4 8.5l4 2.5 17.4-17.4 14.1 14.1-17.4 17.4 2.6 4.1c4 6.3 6.8 13.2 8.5 20.4l1.1 4.7H328v20h-24.6l-1.1 4.7c-1.7 7.3-4.5 14.1-8.5 20.4l-2.5 4.1 17.4 17.4-14.1 14.1-17.4-17.4-4.1 2.5c-6.3 4-13.2 6.8-20.4 8.5l-4.7 1.1V192h-20v-24.6l-4.7-1.1c-7.3-1.6-14.1-4.5-20.4-8.5l-4.1-2.5-17.4 17.4-14.1-14.1 17.4-17.4-2.6-4.1c-4-6.3-6.8-13.2-8.5-20.4l-1.1-4.7H148V92zM12 92h124v32h27.2l.4 1.4c1.4 4.3 3.1 8.6 5.2 12.6l.7 1.3-19.3 19.2 31.1 31.1 19.2-19.2 1.3.7c4 2.1 8.3 3.9 12.6 5.2l1.4.4V204h44v-27.2l1.4-.4c4.3-1.4 8.6-3.1 12.6-5.2l1.3-.7 19.2 19.2 31.1-31.1-19.3-19.2.7-1.3c2.1-4 3.9-8.3 5.3-12.6l.4-1.4H340v-32h124v244H12V92zm273.1 372h-94.3l11.2-28h71.9l11.2 28zM204 424v-28h68v28h-68zM12 384v-36h452v36H12z"/></g></svg>