<svg id="Слой_1" xmlns="http://www.w3.org/2000/svg" width="512" height="512" viewBox="0 0 512 512"><style>.st0{fill:#288fc9}</style><path class="st0" d="M116 415c-14.9 0-27 12.1-27 27s12.1 27 27 27 27-12.1 27-27-12.1-27-27-27zm0 40c-7.2 0-13-5.8-13-13s5.8-13 13-13 13 5.8 13 13-5.8 13-13 13z"/><path class="st0" d="M482 415h-19V196c0-3.9-3.1-7-7-7h-53V50c0-3.9-3.1-7-7-7H196c-3.9 0-7 3.1-7 7v365h-11.7l-.8-1.7c-6.6-13.9-17.9-25.2-31.8-31.8l-1.7-.8V30c0-14.9-12.1-27-27-27H30C15.1 3 3 15.1 3 30s12.1 27 27 27h59v323.6l-1.7.8C64 392.5 49 416.3 49 442c0 37 30.1 67 67 67 25.7 0 49.5-15 60.5-38.3l.8-1.7H482c14.9 0 27-12.1 27-27s-12.1-27-27-27zM30 43c-7.2 0-13-5.8-13-13s5.8-13 13-13h86c7.2 0 13 5.8 13 13v346.2l-3.4-.5c-6.4-.9-12.7-.9-19.1 0l-3.4.5V50c0-3.9-3.1-7-7-7H30zm86 452c-29.2 0-53-23.8-53-53s23.8-53 53-53 53 23.8 53 53-23.8 53-53 53zM273 57h46v65.9l-19.1-12.7c-2.3-1.5-5.5-1.5-7.8 0L273 122.9V57zm-70 0h56v79c0 2.6 1.4 5 3.7 6.2 2.3 1.2 5 1.1 7.2-.3l26.1-17.4 26.1 17.4c2.2 1.4 4.9 1.6 7.2.3 2.3-1.2 3.7-3.6 3.7-6.2V57h56v132H203V57zm156 146v95l-28.8-21.6c-2.4-1.8-6-1.8-8.4 0L293 298v-95h66zm-156 0h76v109c0 2.7 1.5 5.1 3.9 6.3 2.4 1.2 5.2.9 7.3-.7l35.8-26.8 35.8 26.8c2.1 1.6 4.9 1.9 7.3.7 2.4-1.2 3.9-3.6 3.9-6.3V203h76v212H203V203zm279 252H181.8l.5-3.4c.5-3.2.7-6.4.7-9.6 0-3.1-.2-6.3-.7-9.6l-.5-3.4H482c7.2 0 13 5.8 13 13s-5.8 13-13 13z"/><path class="st0" d="M423 362v20c0 3.9-3.1 7-7 7s-7-3.1-7-7v-20c0-3.9 3.1-7 7-7s7 3.1 7 7z"/><circle class="st0" cx="416" cy="322" r="7"/><path class="st0" d="M383 362v20c0 3.9-3.1 7-7 7s-7-3.1-7-7v-20c0-3.9 3.1-7 7-7s7 3.1 7 7z"/></svg>