<svg id="Слой_1" xmlns="http://www.w3.org/2000/svg" width="509" height="506.1" viewBox="0 0 509 506.1"><style>.st0{fill:#288fc9}</style><path class="st0" d="M499.3 460.8c-1.9 0-3.8 0-5.7-.4l-1.2-.3v-8.2-14.8c0-8.2-1.3-9.4-9.3-9.4H459.3v-1.5-7.8-16.8c-.1-4.9-1.9-6.8-6.8-7.1-1.7-.1-3.4-.1-5.3-.1h-4.1V228l1.3-.2c.4-.1.7-.1 1.1-.2.7-.1 1.5-.2 2.2-.3 11.6-.3 11.6-.3 11.6-12.2v-21h9.4c5.9 0 11.4 0 16.9-.1 4.6-.1 6.7-2 6.8-6.4.2-10.8.1-21.7 0-32.4-.1-4.1-2.2-6-6.6-6.2h-.4c-2-.1-4-.2-5.8 0-6 .7-10.4-1.7-13.9-4.2-56.7-39.1-114.3-79-170-117.5L261 3.3c-6.3-4.4-6.7-4.4-13 0-15.4 10.7-30.8 21.3-46.3 32-50 34.7-101.9 70.6-152.8 106-6.8 4.8-14.5 9-24.8 8-2.5-.3-4.3.1-5.5 1.2-1.3 1.2-1.9 3.2-2 6.3-.1 10.1-.1 20.2 0 29 0 7 1.6 8.5 8.8 8.5h24.4V219.9c.1 5.8 1.8 7.4 7.6 7.6h8.4v167.1h-6.4c-8.4.1-9.6 1.3-9.6 9.7v23.5H26.4c-8.7 0-9.8 1.1-9.8 10v22.7l-1.3.2c-1.8.3-3.6.3-5.3.2-4.4 0-7.9 0-10 4.1v37.2c1.9 2.8 4.6 3.9 9.1 3.9 163.1-.1 328.3-.1 490.8 0 4.5 0 7.2-1.1 9.1-3.9V465c-1.9-3.9-4.9-4.1-9.7-4.2zM447 407v20.4h-70.3V407H447zm-145-3.5c0-3.8-.6-6.1-1.9-7.3-1.3-1.2-3.5-1.7-7-1.5-2.2.1-4.6 0-6.1-1.5-1.6-1.5-1.8-3.9-1.8-6.3.2-48.4.2-99.6 0-151.9 0-3 .5-4.8 1.8-6 1.5-1.5 3.9-1.6 6-1.5 3.8.1 6-.3 7.3-1.5 1.3-1.2 1.8-3.5 1.8-7.6v-23.7h62.5v21c0 11.3.3 11.7 11.5 11.9.7 0 1.4.1 2.1.1.4 0 .8.1 1.2.1l1.4.1v166.8h-8.5c-5.9.2-7.6 2-7.7 7.7-.1 4.3-.1 8.7-.1 12.9v12.2H302V419v-15.5zm-95 15.2v8.7h-62.5v-20.9c0-11.5-.2-11.8-11.9-12.1-.6 0-1.1-.1-1.8-.1-.3 0-.7-.1-1.1-.1l-1.4-.1V227.4h8.8c5.5-.2 7.3-2 7.5-7.4.1-5.4.1-10.7 0-16.4v-8.9H207v23.5c0 7.6 1.5 9.2 9.1 9.3h7.2v167.1h-8.2c-6.3.1-8.2 2.1-8.2 8.2.1 5.2.1 10.5.1 15.9zm12.4-203.6v-20.4h70.3v20.4h-70.3zm53.4 12.7v166.4H236V227.8h36.8zm-53.4 179h70.2v20.6h-70.2v-20.6zm173.9-12.6V227.8h37.1v166.4h-37.1zm53.5-179.1h-70.1v-20.5h70.1v20.5zM28.9 181.8v-20.7h129.4c1 0 1.9 0 2.9-.1 3.5-.3 6-2.8 5.8-5.9-.2-3.4-2-5.4-5.6-6-.9-.1-1.9-.1-3-.1H64.2l-1.2-3 11.8-8.2c7.7-5.3 15.4-10.7 23.1-16l31.1-21.5c40.2-27.8 80.3-55.6 120.5-83.5 2.4-1.7 5.2-3.6 9.5-.6 48.7 33.9 98.4 68.3 146.4 101.5l36.7 25.4c.7.5 1.4 1 2.3 1.7.5.4 1.2.9 2 1.5l3.5 2.7H193.7c-1.3 0-2.6-.1-3.7.2-3.3.7-5 2.7-4.9 5.9.1 3.2 1.8 5.2 5.1 5.8 1.3.2 2.7.2 4.2.2H480v20.7H28.9zm33.2 33.3v-20.5h70.1v20.5H62.1zm53.5 12.6v166.5H78.5V227.7h37.1zM62.2 406.9h70v20.6h-70v-20.6zM29 440.1h451.1v20.4H29v-20.4zm467.6 53.6H12.3v-20.5h484.3v20.5z"/><path class="st0" d="M270.7 89.8c-4.2-4.3-9.8-6.7-15.9-6.8-12.3-.1-22.6 9.7-22.8 21.8-.2 12.6 9.6 23 22 23.2 6.1.1 11.8-2.1 16.2-6.4 4.3-4.2 6.8-9.8 6.9-15.8 0-6-2.3-11.7-6.4-16zm-8.9 23.2c-2 2-4.6 3.1-7.3 3.1h-.2c-5.6-.1-10.3-4.8-10.3-10.4 0-2.9 1-5.5 3.1-7.5 2-2 4.6-3.1 7.4-3.1h.2c5.7.1 10.3 4.6 10.3 10.3 0 2.8-1.1 5.6-3.2 7.6z"/></svg>