<svg id="Слой_1" xmlns="http://www.w3.org/2000/svg" width="512" height="512" viewBox="0 0 512 512"><style>.st0{fill:#288fc9}</style><g id="Outline"><path class="st0" d="M389.4 424.6c.8-5.7.8-11.5 0-17.1l-.2-1.3 17.4-10-22-38.1-17.4 9.9-1.1-.8c-4.5-3.5-9.5-6.5-14.8-8.6l-1.3-.6v-20h-44v20l-1.3.5c-5.3 2.2-10.3 5.1-14.8 8.6l-1.1.8-2.8-1.6V320c0-19.7-43.3-30-86-30s-86 10.3-86 30v144c0 19.7 43.3 30 86 30 38.6 0 81.8-8.6 85.6-27.4l.2-.9 3-1.7 1.1.8c4.5 3.5 9.5 6.4 14.8 8.6l1.3.5v20h44v-20l1.3-.5c5.3-2.2 10.3-5.1 14.8-8.6l1.1-.8 17.4 10.1 22-38.1-17.4-10 .2-1.4zM126.1 319.3c2.1-6.2 28.7-17.3 73.9-17.3 2.8 0 5.6 0 8.5.1.6 0 1.2 0 1.8.1.3 0 .7 0 1 .1h.8c1.5.1 3 .1 4.4.2.9.1 1.8.1 2.7.2l2.6.2c.8.1 1.5.1 2.2.2 1.3.1 2.5.3 3.7.4l1 .1c.3 0 .7.1 1 .1.5 0 .9.1 1.3.2 1.3.2 2.5.3 3.7.5.7.1 1.3.2 2 .3l.6.1c21.9 3.6 35 10 36.6 14.5l.3.7-.3.7-.3.6c-.1.2-.3.5-.4.7l-.1.1-.4.4-.1.1-.8.8c-.2.2-.4.3-.5.4l-.1.1c-.3.2-.7.5-1.1.8-.2.1-.4.3-.6.4l-.6.4c-.3.2-.6.4-1 .6l-.6.3c-.1.1-.3.1-.4.2-.6.3-1.1.6-1.8.9l-1.7.7-1.5.6-.9.3-1.2.4c-.6.2-1.1.4-1.7.6-.3.1-.7.2-1.1.3l-1 .3c-.7.2-1.4.5-2.2.7-.3.1-.8.2-1.2.3l-1.1.3c-.8.2-1.6.4-2.5.7l-1.5.3-1.2.3c-.9.2-1.7.4-2.6.6-.6.1-1.1.2-1.7.3l-2 .4c-.7.1-1.5.3-2.2.4s-1.3.2-1.9.3l-1.9.3c-.8.1-1.7.3-2.6.4-.9.1-2 .2-3.1.3l-1.9.2c-.7.1-1.3.2-2 .2-.9.1-1.9.2-2.9.2l-1.4.1c-.4 0-.8.1-1.3.1-.6 0-1.3.1-2 .1-1.9.1-3.8.2-5.6.3-.5 0-1 0-1.4.1-.3 0-.7 0-1 .1-3 .1-5.8.1-8.6.1-5.7 0-11.3-.2-16.6-.5-34.7-2.2-55.5-11.2-57.3-16.9l-.2-.6v-.5zm140.2 100.8l.3 2.7-1.4.5c-18.9 7.2-38.6 10.8-58.6 10.8-2.2 0-4.4 0-6.5-.1-45.9 0-72.1-11.2-73.8-17.5l-.1-.3v-32.1l2.9 1.5c15.3 7.8 41.9 12.4 71.1 12.4 15.8.1 31.6-1.4 47.1-4.5l4.3-.9-2 3.4 17.4 10-.2 1.3c-.4 2.8-.6 5.7-.6 8.6-.2 1.4-.1 2.8.1 4.2zm-6.8-42.5c-18 5.6-36.6 8.4-55.4 8.4H200c-46 0-72.2-11.2-73.9-17.5l-.1-.3v-32.1l2.9 1.5c.1 0 .2.1.3.2 1.9.9 3.9 1.8 6 2.6.3.1.6.2 1 .3l.9.3c1.8.6 3.5 1.2 5.1 1.7.8.3 1.7.5 2.6.7 1.7.5 3.5.9 5.3 1.3h.2c.8.2 1.6.4 2.4.5 2.3.5 4.6.9 6.9 1.3l1.4.3c2.8.5 5.7.9 8.6 1.2l2.5.3c2.4.3 4.5.5 6.5.6 1 .1 2.1.2 3.1.2 2.4.2 4.5.3 6.4.4l2.8.1c3.3.1 6.3.2 9.1.2s5.8 0 9.1-.2l2.8-.1c2-.1 4-.2 6.4-.4 1-.1 2-.2 3.1-.2 2-.2 4.1-.4 6.5-.6l2.6-.3c2.9-.4 5.8-.8 8.6-1.2l1.3-.3c2.4-.4 4.7-.8 6.9-1.3.8-.2 1.6-.4 2.4-.5h.2c1.8-.4 3.6-.9 5.3-1.3.9-.2 1.7-.5 2.6-.7 1.7-.5 3.3-1 5.2-1.7.3-.1.5-.2.8-.3.3-.1.6-.2 1-.3 2.1-.8 4.2-1.7 6-2.6.1 0 .2-.1.3-.1l2.9-1.5v23.2l-2.6-1.5-11.2 19.5-.7.2zm7.5 92.9c-5.2 2.7-25.6 11.5-67 11.5-46 0-72.2-11.2-73.9-17.5l-.1-.3v-32.1l2.9 1.5c15.4 7.7 42 12.3 71.1 12.3 17 .2 34-1.7 50.6-5.3l1.4-.3 16.8 29.1-1.8 1.1zm123.2-30.2l-10 17.3-14.6-8.4-3.3 3.1c-5.6 5.3-12.5 9.4-20 11.6l-4.3 1.3V482h-20v-16.8l-4.3-1.3c-7.5-2.3-14.4-6.3-20-11.6l-3.2-3-14.6 8.4-10-17.3 14.6-8.4-1-4.3c-1.9-7.6-1.9-15.6 0-23.2l1-4.3-14.6-8.4 10-17.3 14.6 8.4 3.3-3.1c5.6-5.3 12.5-9.4 20-11.6l4.3-1.3V350h20v16.8l4.3 1.3c7.5 2.3 14.4 6.3 20 11.6l3.2 3 14.6-8.4 10 17.3-14.6 8.4 1 4.3c1.9 7.6 1.9 15.6 0 23.2l-1 4.3 14.6 8.5z"/><path class="st0" d="M328 386c-16.5 0-30 13.5-30 30s13.5 30 30 30 30-13.5 30-30-13.5-30-30-30zm0 48c-9.9 0-18-8.1-18-18s8.1-18 18-18 18 8.1 18 18-8.1 18-18 18zM210 18v156h92V18h-92zm80 144h-68v-20h68v20zm0-32h-68V30h68v100z"/><path class="st0" d="M262 152c0 3.3-2.7 6-6 6s-6-2.7-6-6c0-1.6.6-3.1 1.7-4.3.3-.3.6-.5.9-.7.3-.2.6-.4 1-.5l.3-.1.9-.3c.4-.1.8-.1 1.2-.1 1.6 0 3.1.6 4.2 1.7 1.1 1.2 1.8 2.7 1.8 4.3zM422 194v44H262v32h-12v-32H90v-44h12v32h148v-32h12v32h148v-32zM174 142V18H18v124h48v20H50v12h92v-12h-16v-20h48zM30 30h132v68H30V30zm84 132H78v-20h36v20zm-84-32v-20h132v20H30zM338 18v156h156V18H338zm144 144H350V78h132v84zm0-96H350V30h132v36z"/><path class="st0" d="M374 48c0 1.6-.6 3.1-1.7 4.2-.6.5-1.3 1-2.1 1.3-1.4.6-3 .6-4.5 0-.8-.3-1.4-.8-2-1.2-1.7-1.7-2.2-4.3-1.2-6.6.3-.7.7-1.4 1.2-2 1.1-1.1 2.7-1.7 4.2-1.7.4 0 .8 0 1.2.1h.1c.3 0 .6.1.9.3l.3.1c.3.1.5.2.8.4l.2.1c.3.2.6.4.9.7 1.1 1.2 1.7 2.7 1.7 4.3zM397.5 50.3c-.3.7-.7 1.4-1.3 2-.6.5-1.3 1-2 1.3-2.2 1-4.8.5-6.5-1.2-.5-.6-1-1.3-1.3-2.2-.3-.7-.5-1.4-.5-2.2s.2-1.6.5-2.3.7-1.4 1.2-2c2.4-2.2 6.1-2.2 8.5 0 .5.6 1 1.3 1.3 2 .8 1.5.8 3.1.1 4.6zM421.5 50.3c-.3.8-.7 1.4-1.3 2-1.1 1.1-2.7 1.7-4.2 1.7-.8 0-1.6-.2-2.3-.5-.7-.3-1.4-.7-2-1.3-.5-.6-1-1.3-1.3-2-.6-1.4-.6-3 0-4.5v-.1c.3-.7.7-1.3 1.2-1.9.3-.3.6-.5.9-.7s.6-.4 1-.5l.3-.1c.3-.1.6-.2 1-.3 1.1-.3 2.3-.1 3.4.4.8.3 1.4.8 2 1.3.5.5.9 1.2 1.2 1.9v.1c.8 1.4.8 3 .1 4.5z"/></g></svg>