<svg id="Capa_1" xmlns="http://www.w3.org/2000/svg" width="512" height="366.8" viewBox="0 0 512 366.8"><style>.st0{fill:#288fc9}</style><path class="st0" d="M208.8 340.2c-75.2-20-127.7-88.3-127.7-166.2 0-29.7 7.7-58.9 22.3-84.7 8.2-2.4 30.1-10.3 41.1-29.1 13.5-22.9 4.9-52 4.5-53.3-1.1-3.7-5-6-8.8-5.1-1.3.3-30.9 7-44.3 30-10.9 18.6-7.3 41.3-5.3 49.8-7.5 13.2-13.4 27.3-17.5 41.9-3.3-6.2-7.7-12.4-13.8-17.3-20.6-16.8-50.7-12.8-52-12.7-3.9.5-6.7 4-6.4 7.9.1 1.3 2.2 31.6 22.8 48.4C37.4 161 55.4 163 66.2 163h.3c-.2 3.7-.3 7.3-.3 11 0 16.9 2.3 33.5 6.6 49.3-5.3-3.2-11.3-5.9-17.9-7.2-26.2-5.1-50.8 12.7-51.8 13.4-3.2 2.3-4 6.7-1.9 10 .3.4 6.3 10 16.6 18.7 3.2 2.6 7.9 2.2 10.5-.9 2.6-3.2 2.2-7.9-.9-10.5-3.7-3.1-6.7-6.3-9-9 7.6-4 20.7-9.4 33.6-6.9 12.9 2.5 23 12.4 28.5 19-6.9 3.7-18.3 8.4-30 7.4-4.1-.3-7.7 2.7-8.1 6.8-.4 4.1 2.7 7.7 6.8 8.1 1.5.1 3 .2 4.5.2 14.2 0 27.1-5.6 34.7-9.8 8.8 16.4 20.1 31.5 33.4 44.6-7-.1-14.6.8-21.8 3.7-24.7 9.9-35.8 38.2-36.2 39.4-1.4 3.6.2 7.8 3.8 9.4.8.4 15.5 7.2 32.9 7.2 6.6 0 13.7-1 20.5-3.7 16.6-6.6 27.1-21.6 32.3-31.1 15.7 10 33.1 17.7 51.8 22.6 4 1.1 8.3-1.5 9.2-5.6.8-3.9-1.6-7.9-5.5-8.9zm-175.7-202C23 129.9 18.7 116.4 17 108c8.6 0 22.7 1.5 32.9 9.8C60 126.1 64.2 139.6 66 148c-8.6 0-22.7-1.5-32.9-9.8zm75.7-98.9c6.6-11.3 19.3-17.6 27.4-20.6 1.3 8.5 2 22.7-4.6 34s-19.3 17.6-27.4 20.6c-1.3-8.5-2-22.7 4.6-34zm6.6 309.9c-12.2 4.9-26.1 2-34.3-.5 4.2-7.5 12.3-19.1 24.5-24 12.2-4.9 26.1-2 34.3.5-4.2 7.5-12.3 19.1-24.5 24zM508.9 229.5c-1-.8-25.7-18.5-51.8-13.4-6.7 1.3-12.7 3.9-17.9 7.2 4.3-15.8 6.6-32.3 6.6-49.3 0-3.7-.1-7.4-.3-11h.3c6.6 0 15.9-.7 25.3-3.8 3.9-1.3 6-5.5 4.7-9.5-1.3-3.9-5.5-6-9.5-4.7-7.4 2.5-14.9 3.1-20.3 3.1 1.7-8.4 6-22 16.2-30.2 10.1-8.3 24.3-9.8 32.9-9.8-1.2 5.9-3.7 14.3-8.6 21.7-2.3 3.4-1.3 8.1 2.1 10.4 3.4 2.3 8.1 1.3 10.4-2.1 10.8-16.3 12.1-35.7 12.2-36.5.2-3.9-2.6-7.3-6.4-7.9-1.3-.2-31.4-4.2-52 12.6-6.1 5-10.5 11.1-13.8 17.3-4.1-14.6-9.9-28.6-17.5-41.9 1.9-8.5 5.6-31.3-5.3-49.9-13.4-22.9-43-29.7-44.3-30-3.9-.8-7.8 1.4-8.9 5.1-.4 1.2-9 30.4 4.5 53.3 11 18.8 32.9 26.7 41.1 29.1 14.6 25.7 22.3 54.9 22.3 84.7 0 77.9-52.5 146.2-127.7 166.2-3.8 1-6.3 5-5.4 8.9.9 4.1 5.2 6.7 9.2 5.6 18.7-5 36.1-12.7 51.8-22.6 5.2 9.5 15.6 24.4 32.3 31.1 6.8 2.7 13.8 3.7 20.5 3.7 17.4 0 32.1-6.8 32.9-7.2 3.5-1.7 5.2-5.8 3.8-9.4-.5-1.2-11.5-29.5-36.2-39.4-7.3-2.9-14.8-3.8-21.8-3.7 13.3-13.1 24.5-28.1 33.4-44.6 7.7 4.2 20.5 9.8 34.7 9.8 3.2 0 6.4-.3 9.7-.9 26.1-5.1 42.3-30.8 42.9-31.9 1.9-3.4 1.1-7.8-2.1-10.1zm-102.5 95.2c12.2 4.9 20.3 16.5 24.5 24-8.2 2.6-22.1 5.4-34.3.5-12.2-4.9-20.3-16.5-24.5-24 8.2-2.6 22.1-5.4 34.3-.5zm-26-272c-6.6-11.3-5.9-25.5-4.6-34 8 3 20.8 9.3 27.4 20.6 6.6 11.3 5.9 25.5 4.6 34-8.1-3-20.8-9.3-27.4-20.6zm84.7 204c-12.9 2.5-26-2.9-33.6-6.9 5.5-6.6 15.6-16.5 28.6-19 12.9-2.5 26 2.9 33.6 6.9-5.5 6.6-15.7 16.5-28.6 19z"/><path class="st0" d="M327.6 245.7c0-17.6-14.3-31.9-31.9-31.9h-.2v-101c0-4.1-3.3-7.5-7.5-7.5-4.1 0-7.5 3.3-7.5 7.5v108.5c0 4.1 3.3 7.5 7.5 7.5h7.6c9.3 0 16.9 7.6 16.9 16.9 0 9.3-7.6 16.9-16.9 16.9h-68.9c-9.3 0-16.9-7.6-16.9-16.9 0-9.3 7.6-16.9 16.9-16.9h12.5c4.1 0 7.5-3.3 7.5-7.5V90.6c0-3-1.8-5.8-4.6-6.9-2.8-1.2-6-.5-8.1 1.6l-6 5.9c-6.6 6.6-17.3 6.6-23.9 0-6.6-6.6-6.6-17.3 0-23.9l47.5-47.5c4.9-4.8 12.1-6.3 18.4-3.6 6.3 2.6 10.4 8.8 10.4 15.6v51c0 4.1 3.3 7.5 7.5 7.5 4.1 0 7.5-3.3 7.5-7.5v-51c0-12.9-7.7-24.5-19.7-29.4C263.8-2.5 250.1.2 241 9.3l-47.5 47.5c-12.4 12.4-12.5 32.6 0 45 10.3 10.4 26.1 12.1 38.2 5.2v106.8h-5c-17.6 0-31.9 14.3-31.9 31.9 0 17.6 14.3 31.9 31.9 31.9h68.9c17.7 0 32-14.3 32-31.9z"/></svg>