<svg id="Capa_1" xmlns="http://www.w3.org/2000/svg" width="629" height="629" viewBox="0 0 629 629"><style>.st0{fill:#d8d8d8}</style><ellipse transform="rotate(-45 309.9979 315.805)" class="st0" cx="310" cy="315.8" rx="60.9" ry="60.9"/><path class="st0" d="M468.2 242.7c0-47-38.2-85.2-85.2-85.2H236.9c-47 0-85.2 38.2-85.2 85.2v146.2c0 47 38.2 85.2 85.2 85.2h146.2c47 0 85.2-38.2 85.2-85.2h-.1V242.7zM310 413.2c-53.8 0-97.4-43.6-97.4-97.4s43.6-97.4 97.4-97.4 97.4 43.6 97.4 97.4-43.6 97.4-97.4 97.4zm104.7-189.1c-7.2 0-13-5.8-13-13s5.8-13 13-13 13 5.8 13 13-5.8 13-13 13z"/><path class="st0" d="M539 0H90C40.3 0 0 40.3 0 90v449c0 49.7 40.3 90 90 90h449c49.7 0 90-40.3 90-90V90c0-49.7-40.3-90-90-90zm-34.2 388.9c0 67.3-54.6 121.8-121.8 121.8H236.9c-67.3 0-121.8-54.6-121.8-121.8V242.8c0-67.3 54.6-121.8 121.8-121.8h146.2c67.2 0 121.7 54.5 121.7 121.7v146.2z"/></svg>